<svg width="12" height="16" viewBox="0 0 12 16" fill="none" xmlns="http://www.w3.org/2000/svg">
<path d="M1.5 14.977C1.5 15.487 2.0025 15.847 2.49 15.6895L6 14.5195L9.51 15.6895C9.9975 15.8545 10.5 15.4945 10.5 14.977V10.2295C11.43 9.17203 12 7.79203 12 6.26953C12 2.95453 9.315 0.269531 6 0.269531C2.685 0.269531 0 2.95453 0 6.26953C0 7.79203 0.57 9.17203 1.5 10.2295V14.977ZM6 1.76953C8.4825 1.76953 10.5 3.78703 10.5 6.26953C10.5 8.75203 8.4825 10.7695 6 10.7695C3.5175 10.7695 1.5 8.75203 1.5 6.26953C1.5 3.78703 3.5175 1.76953 6 1.76953Z" fill="url(#paint0_linear_10356_531783)"/>
<defs>
<linearGradient id="paint0_linear_10356_531783" x1="11.3366" y1="11.8744" x2="0.158228" y2="4.35669" gradientUnits="userSpaceOnUse">
<stop stop-color="#915E3B"/>
<stop offset="1" stop-color="#98B09F"/>
</linearGradient>
</defs>
</svg>
